<svg width="24" height="24" viewBox="0 0 24 24" fill="none" xmlns="http://www.w3.org/2000/svg">
<path d="M15.7828 5.78453C14.6338 5.11751 13.3285 4.76718 12 4.7693C7.83111 4.7693 4.45178 8.14862 4.45178 12.3175C4.45178 16.4864 7.83111 19.8657 12 19.8657C16.1688 19.8657 19.5482 16.4864 19.5482 12.3175C19.5482 10.9486 19.1836 9.6643 18.5465 8.55774" stroke-width="1.31" stroke-linecap="round" stroke-linejoin="round"/>
<path d="M15.0004 9.31702C15.0004 9.31702 13.7218 12.7307 13.1322 13.3202C12.8491 13.6033 12.4651 13.7624 12.0647 13.7624C11.6643 13.7624 11.2803 13.6033 10.9972 13.3202C10.7141 13.0371 10.5551 12.6531 10.5551 12.2527C10.5551 11.8523 10.7141 11.4683 10.9972 11.1852C11.5867 10.5957 15.0004 9.31702 15.0004 9.31702Z" stroke-width="1.31" stroke-linejoin="round"/>
</svg>
